<mxfile host="Electron" modified="2024-05-31T07:03:51.431Z" agent="Mozilla/5.0 (Windows NT 10.0; Win64; x64) AppleWebKit/537.36 (KHTML, like Gecko) draw.io/24.4.8 Chrome/124.0.6367.207 Electron/30.0.6 Safari/537.36" etag="CUiW76hzYZ16XoHcZqc_" version="24.4.8" type="device">
  <diagram name="Page-1" id="CSDa_O9chn2-4anCzom9">
    <mxGraphModel dx="2049" dy="432" grid="1" gridSize="10" guides="1" tooltips="1" connect="1" arrows="1" fold="1" page="1" pageScale="1" pageWidth="1354" pageHeight="762" math="0" shadow="0">
      <root>
        <mxCell id="0" />
        <mxCell id="1" parent="0" />
        <mxCell id="dyFQFkjPWJgea43otT9p-1" value="" style="rounded=1;whiteSpace=wrap;html=1;fillColor=none;dashed=1;strokeWidth=4;strokeColor=#8C4FFF;arcSize=2;" vertex="1" parent="1">
          <mxGeometry x="277" y="963" width="800" height="360" as="geometry" />
        </mxCell>
        <mxCell id="dyFQFkjPWJgea43otT9p-3" value="&lt;font color=&quot;#8c4fff&quot; style=&quot;font-size: 18px;&quot;&gt;Private&lt;/font&gt;" style="text;html=1;align=center;verticalAlign=middle;resizable=0;points=[];autosize=1;strokeColor=none;fillColor=none;textShadow=0;" vertex="1" parent="1">
          <mxGeometry x="279" y="1281" width="80" height="40" as="geometry" />
        </mxCell>
        <mxCell id="dyFQFkjPWJgea43otT9p-4" value="Admin Host" style="whiteSpace=wrap;html=1;" vertex="1" parent="1">
          <mxGeometry x="450" y="1017" width="120" height="250" as="geometry" />
        </mxCell>
        <mxCell id="dyFQFkjPWJgea43otT9p-5" value="Backups Host" style="whiteSpace=wrap;html=1;" vertex="1" parent="1">
          <mxGeometry x="780" y="1017" width="120" height="250" as="geometry" />
        </mxCell>
        <mxCell id="dyFQFkjPWJgea43otT9p-6" style="edgeStyle=orthogonalEdgeStyle;rounded=0;orthogonalLoop=1;jettySize=auto;html=1;entryX=0.002;entryY=0.201;entryDx=0;entryDy=0;shadow=1;textShadow=1;fontStyle=1;exitX=1.003;exitY=0.204;exitDx=0;exitDy=0;exitPerimeter=0;entryPerimeter=0;" edge="1" parent="1">
          <mxGeometry relative="1" as="geometry">
            <mxPoint x="570.3599999999999" y="1048" as="sourcePoint" />
            <mxPoint x="780.24" y="1047.25" as="targetPoint" />
          </mxGeometry>
        </mxCell>
        <mxCell id="dyFQFkjPWJgea43otT9p-7" value="&lt;b&gt;/host/status&lt;/b&gt;" style="edgeLabel;html=1;align=center;verticalAlign=middle;resizable=0;points=[];textShadow=0;" vertex="1" connectable="0" parent="dyFQFkjPWJgea43otT9p-6">
          <mxGeometry x="-0.0653" y="2" relative="1" as="geometry">
            <mxPoint as="offset" />
          </mxGeometry>
        </mxCell>
        <mxCell id="dyFQFkjPWJgea43otT9p-8" style="edgeStyle=orthogonalEdgeStyle;rounded=0;orthogonalLoop=1;jettySize=auto;html=1;exitX=1;exitY=0.5;exitDx=0;exitDy=0;shadow=1;textShadow=1;fontStyle=1" edge="1" parent="1">
          <mxGeometry relative="1" as="geometry">
            <mxPoint x="570" y="1125" as="sourcePoint" />
            <mxPoint x="780" y="1125" as="targetPoint" />
          </mxGeometry>
        </mxCell>
        <mxCell id="dyFQFkjPWJgea43otT9p-9" value="&lt;b&gt;/instance/status&lt;/b&gt;" style="edgeLabel;html=1;align=center;verticalAlign=middle;resizable=0;points=[];textShadow=0;" vertex="1" connectable="0" parent="dyFQFkjPWJgea43otT9p-8">
          <mxGeometry x="-0.0819" y="-1" relative="1" as="geometry">
            <mxPoint x="12" as="offset" />
          </mxGeometry>
        </mxCell>
        <mxCell id="dyFQFkjPWJgea43otT9p-10" style="edgeStyle=orthogonalEdgeStyle;rounded=0;orthogonalLoop=1;jettySize=auto;html=1;exitX=1.003;exitY=0.811;exitDx=0;exitDy=0;entryX=0;entryY=0.816;entryDx=0;entryDy=0;shadow=1;textShadow=1;fontStyle=1;endArrow=none;endFill=0;startArrow=classic;startFill=1;exitPerimeter=0;entryPerimeter=0;" edge="1" parent="1">
          <mxGeometry relative="1" as="geometry">
            <mxPoint x="570.3599999999999" y="1202.75" as="sourcePoint" />
            <mxPoint x="780" y="1204" as="targetPoint" />
            <Array as="points">
              <mxPoint x="676" y="1203" />
              <mxPoint x="676" y="1204" />
            </Array>
          </mxGeometry>
        </mxCell>
        <mxCell id="dyFQFkjPWJgea43otT9p-11" value="&lt;b&gt;/instance/logs&lt;/b&gt;" style="edgeLabel;html=1;align=center;verticalAlign=middle;resizable=0;points=[];textShadow=0;" vertex="1" connectable="0" parent="dyFQFkjPWJgea43otT9p-10">
          <mxGeometry x="-0.0819" y="-1" relative="1" as="geometry">
            <mxPoint x="4" y="-1" as="offset" />
          </mxGeometry>
        </mxCell>
        <mxCell id="dyFQFkjPWJgea43otT9p-12" value="&lt;font style=&quot;font-size: 10px;&quot;&gt;{ host_ip_address }&lt;/font&gt;" style="text;html=1;align=left;verticalAlign=middle;resizable=0;points=[];autosize=1;strokeColor=none;fillColor=none;fontSize=10;" vertex="1" parent="1">
          <mxGeometry x="635" y="1077" width="110" height="30" as="geometry" />
        </mxCell>
        <mxCell id="dyFQFkjPWJgea43otT9p-13" value="&lt;font style=&quot;font-size: 10px;&quot;&gt;Give some informations about &lt;br&gt;the host&lt;/font&gt;" style="text;html=1;align=left;verticalAlign=middle;resizable=0;points=[];autosize=1;strokeColor=none;fillColor=none;fontSize=10;" vertex="1" parent="1">
          <mxGeometry x="635" y="1049" width="160" height="40" as="geometry" />
        </mxCell>
        <mxCell id="dyFQFkjPWJgea43otT9p-14" value="&lt;font style=&quot;font-size: 10px;&quot;&gt;{ instance }&lt;/font&gt;" style="text;html=1;align=left;verticalAlign=middle;resizable=0;points=[];autosize=1;strokeColor=none;fillColor=none;fontSize=10;" vertex="1" parent="1">
          <mxGeometry x="633" y="1153" width="70" height="30" as="geometry" />
        </mxCell>
        <mxCell id="dyFQFkjPWJgea43otT9p-15" value="&lt;font style=&quot;font-size: 10px;&quot;&gt;Give some informations about &lt;br&gt;the instance container&lt;/font&gt;" style="text;html=1;align=left;verticalAlign=middle;resizable=0;points=[];autosize=1;strokeColor=none;fillColor=none;fontSize=10;" vertex="1" parent="1">
          <mxGeometry x="633" y="1127" width="160" height="40" as="geometry" />
        </mxCell>
        <mxCell id="dyFQFkjPWJgea43otT9p-16" value="Transfert logs" style="text;html=1;align=left;verticalAlign=middle;resizable=0;points=[];autosize=1;strokeColor=none;fillColor=none;fontSize=10;" vertex="1" parent="1">
          <mxGeometry x="632" y="1199" width="80" height="30" as="geometry" />
        </mxCell>
      </root>
    </mxGraphModel>
  </diagram>
</mxfile>
